<?xml version="1.0" encoding="iso-8859-1"?>
<!-- Generator: Adobe Illustrator 19.1.0, SVG Export Plug-In . SVG Version: 6.00 Build 0)  -->
<svg xmlns="http://www.w3.org/2000/svg" xmlns:xlink="http://www.w3.org/1999/xlink" version="1.1" id="Capa_1" x="0px" y="0px" viewBox="0 0 515.571 515.571" style="enable-background:new 0 0 515.571 515.571;" xml:space="preserve" width="512px" height="512px">
<g>
	<path d="M260.28,0C116.926,0,1.237,115.689,1.237,259.043s115.689,256.528,256.528,256.528   c143.354,0,256.528-115.689,256.528-256.528C516.808,115.689,401.119,0,260.28,0z M448.904,266.588H305.55v103.114   c0,5.03-5.03,7.545-10.06,10.06c-2.515,0-5.03,2.515-7.545,2.515s-5.03,0-7.545-2.515L79.202,266.588   c-5.03-2.515-7.545-7.545-7.545-10.06c0-2.515,2.515-7.545,5.03-10.06l201.198-115.689c5.03-2.515,12.575-2.515,15.09,0   c7.545,0,12.575,5.03,12.575,10.06v100.599h143.354c7.545,0,12.575,5.03,12.575,12.575S456.449,266.588,448.904,266.588z" fill="#FFFFFF"/>
</g>
<g>
</g>
<g>
</g>
<g>
</g>
<g>
</g>
<g>
</g>
<g>
</g>
<g>
</g>
<g>
</g>
<g>
</g>
<g>
</g>
<g>
</g>
<g>
</g>
<g>
</g>
<g>
</g>
<g>
</g>
</svg>
