<?xml version="1.0" encoding="utf-8"?>
<!-- Generator: Adobe Illustrator 16.0.0, SVG Export Plug-In . SVG Version: 6.00 Build 0)  -->
<!DOCTYPE svg PUBLIC "-//W3C//DTD SVG 1.1//EN" "http://www.w3.org/Graphics/SVG/1.1/DTD/svg11.dtd">
<svg version="1.1" id="Layer_1" xmlns="http://www.w3.org/2000/svg" xmlns:xlink="http://www.w3.org/1999/xlink" x="0px" y="0px"
	 width="961.746px" height="522.703px" viewBox="0 0 961.746 522.703" enable-background="new 0 0 961.746 522.703"
	 xml:space="preserve">
<g enable-background="new    ">
	<path fill="#FFFFFF" d="M74.419,98.802l-0.202,30.296l0.605,79.996v5.759H13.108l0.807-93.016l-0.807-77.868h106.89
		c4.84,0,7.563,0.124,8.168,0.37c1.545,0.495,2.319,1.894,2.319,4.198c0,2.881-1.479,4.321-4.437,4.321h-0.706l-50.521-0.751
		l-0.404,38.809l10.992,0.125l35.294-0.751l7.765-0.125c2.824,0,4.689,0.293,5.597,0.876c0.908,0.585,1.361,1.752,1.361,3.505
		c0,3.255-2.218,4.882-6.655,4.882l-7.966-0.25L74.419,98.802z"/>
	<path fill="#FFFFFF" d="M231.899,186.559c6.456,5.487,13.424,10.176,20.906,14.064c7.481,3.889,15.517,6.92,24.107,9.096
		c2.08,0.501,3.12,1.753,3.12,3.756c0,2.754-1.544,4.131-4.632,4.131c-7.049,0-16.951-3.838-29.705-11.518
		c-10.607-6.426-22.758-16.357-36.452-29.795v5.133l0.101,21.282v12.144h-61.411v-5.633l0.202-40.812l0.302-48.824l-0.202-75.614
		h40.508c18.139,0,31.842,0.626,41.113,1.878s17.165,3.589,23.682,7.011c10.613,5.508,19.01,14.565,25.191,27.166
		c5.71,11.686,8.565,23.954,8.565,36.806c0,13.688-3.189,26.583-9.567,38.683C267.452,174.96,252.176,185.308,231.899,186.559z
		 M222.333,178.797l4.834,0.125c13.828,0,25.509-4.798,35.043-14.397c6.041-6.009,10.671-13.521,13.896-22.534
		c3.021-8.263,4.531-16.691,4.531-25.289c0-14.604-3.827-27.667-11.48-39.184c-5.841-8.929-13.158-15.23-21.952-18.903
		c-8.795-3.672-21.179-5.634-37.156-5.884l-0.908,83.877v22.659l0.101,5.884C213.352,170.046,217.716,174.596,222.333,178.797z"/>
	<path fill="#FFFFFF" d="M377.392,33.704l80.622,181.148h-69.929l-9.742-22.91h-33.766l-29.746-0.125l-5.025-0.125l-6.638,15.299
		c-1.944,4.599-3.306,7.455-4.084,8.569c-0.779,1.113-1.745,1.67-2.895,1.67c-2.3,0-3.452-1.252-3.452-3.755
		c0-1.084,0.657-3.108,1.966-6.072c1.311-2.961,5.902-12.707,13.774-29.231l61.044-127.568L377.392,33.704z M346.021,115.949
		l-17.617,36.796l-14.094,30.31l30.076,0.5l30.175-0.5L346.021,115.949z"/>
	<path fill="#FFFFFF" d="M590.82,127.181v-20.928l-0.201-33.208l-0.102-15.164l-0.102-9.524c0-4.511,1.244-6.766,3.732-6.766
		c1.477,0,2.502,0.522,3.074,1.565c0.57,1.044,0.857,3.026,0.857,5.946v1.753c-0.066,1.752-0.1,4.632-0.1,8.638l-0.404,42.189
		l-0.303,38.684l0.26,40.686l0.346,40.812c-13.85-10.771-34.119-25.654-60.807-44.649c-26.689-18.996-48.303-33.92-64.84-44.777
		l0.102,6.138l1.008,64.629l0.102,8.642c0,3.589-1.346,5.385-4.034,5.385c-2.757,0-4.135-2.212-4.135-6.635l0.102-8.763
		l0.101-14.146l0.403-64.222l-0.807-86.505C492.322,57.928,534.236,88,590.82,127.181z"/>
	<path fill="#FFFFFF" d="M678.25,47.349l-0.605,88.759l0.605,75.364c3.488,0.584,6.375,0.876,8.66,0.876
		c6.578,0,13.324-1.459,20.24-4.381c6.914-2.92,13.023-6.886,18.328-11.893c3.424-3.255,6.965-7.594,10.625-13.02
		c3.658-5.424,6.596-10.724,8.811-15.899c1.275-3.004,2.65-4.507,4.129-4.507c2.215,0,3.324,1.17,3.324,3.505
		c0,2.504-1.664,6.741-4.992,12.707c-3.328,5.968-6.975,11.33-10.941,16.086c-8.605,10.266-18.723,17.401-30.354,21.408
		c-6.992,2.419-13.713,3.63-20.168,3.63c-9.412,0-18.855-2.504-28.336-7.511c-15.193-7.928-26.756-20.488-34.688-37.682
		c-6.59-14.271-9.883-29.419-9.883-45.444c0-16.356,3.428-31.798,10.285-46.32c7.326-15.439,17.68-27.248,31.059-35.428
		c9.748-5.841,20.27-8.764,31.563-8.764c19.361,0,36.102,8.138,50.219,24.412c6.723,7.762,10.084,13.354,10.084,16.775
		c0,0.919-0.336,1.752-1.006,2.504c-0.672,0.751-1.41,1.126-2.217,1.126c-1.342,0-2.953-1.627-4.832-4.882
		c-5.773-9.931-13.393-17.796-22.857-23.598c-9.467-5.8-19.469-8.701-30.006-8.701C682.814,46.473,680.464,46.766,678.25,47.349z"/>
	<path fill="#FFFFFF" d="M826.683,43.969v8.763l-0.604,68.604l0.604,93.516H764.97l0.605-102.279l-0.707-62.47l0.102-6.134H826.683z
		"/>
	<path fill="#FFFFFF" d="M848.769,185.808c1.209,0,2.621,1.127,4.234,3.38c5.043,6.844,11.209,12.331,18.504,16.462
		c7.295,4.131,14.504,6.197,21.631,6.197c7.865,0,11.799-2.963,11.799-8.891c0-3.755-1.379-7.993-4.133-12.71
		c-2.754-4.716-9.342-14.043-19.762-27.98c-13.113-17.606-21.854-30.666-26.225-39.178c-5.781-11.267-8.672-21.99-8.672-32.173
		c0-15.355,5.512-27.917,16.539-37.682c10.822-9.597,24.166-14.397,40.033-14.397c11.092,0,21.277,2.797,30.555,8.388
		c3.494,2.171,6.504,4.675,9.023,7.512c2.521,2.838,3.783,5.217,3.783,7.136c0,0.919-0.354,1.774-1.061,2.566
		c-0.705,0.794-1.428,1.189-2.168,1.189c-1.143,0-2.822-1.293-5.041-3.881c-3.631-4.256-8.404-7.781-14.32-10.578
		c-5.916-2.795-11.596-4.194-17.041-4.194c-3.363,0-6.102,0.897-8.219,2.693s-3.176,4.112-3.176,6.95
		c0,3.423,1.307,7.6,3.926,12.525c2.617,4.927,7.053,11.479,13.309,19.655c19.77,26.118,31.875,43.724,36.311,52.82
		c4.639,9.599,6.959,18.863,6.959,27.792c0,7.596-1.648,14.772-4.941,21.533c-3.295,6.76-7.865,12.312-13.715,16.65
		c-11.16,8.262-24.773,12.394-40.84,12.394c-14.791,0-27.799-4.757-39.025-14.271c-7.865-6.676-11.797-11.893-11.797-15.649
		c0-1.083,0.352-2.065,1.059-2.942C847.003,186.247,847.826,185.808,848.769,185.808z"/>
</g>
<g enable-background="new    ">
	<path fill="#FFFFFF" stroke="#FFFFFF" stroke-miterlimit="10" d="M155.901,277.396l0.138,6.68l-0.276,46.101l-0.138,19.907
		l-0.276,36.278l0.552,64.699v5.107H85.396v-6.155l0.332-20.824l0.164-37.719l0.332-49.376l-0.138-26.586l-0.414-29.206l0.138-8.906
		H155.901z"/>
	<path fill="#FFFFFF" stroke="#FFFFFF" stroke-miterlimit="10" d="M242.964,388.85v40.601c0,7.858,0.504,12.835,1.518,14.931
		c1.932,4.017,6.485,6.024,13.66,6.024c10.669,0,21.225-2.771,31.666-8.316c10.438-5.544,19.476-13.205,27.112-22.985
		c2.483-3.229,4.277-5.281,5.381-6.155c1.104-0.872,2.298-1.31,3.587-1.31c1.563,0,2.85,0.546,3.863,1.637
		c1.011,1.093,1.518,2.468,1.518,4.126c0,3.667-3.083,8.601-9.244,14.799c-8.095,7.946-18.144,14.407-30.148,19.384
		s-23.71,7.465-35.115,7.465c-19.592,0-36.887-6.241-51.879-18.729c-8.74-7.334-15.453-16.371-20.145-27.11
		c-4.139-9.43-6.208-18.859-6.208-28.289c0-9.08,1.839-18.183,5.519-27.307c3.678-9.123,8.737-17.004,15.177-23.641
		c7.451-7.77,16.281-13.794,26.491-18.073c10.025-4.191,20.511-6.286,31.458-6.286c17.016,0,32.424,4.76,46.222,14.275
		c21.524,14.845,32.194,36.366,32.01,64.567H303.26l-41.393,0.131L242.964,388.85z M278.286,380.207v-38.163
		c-0.186-8.189-0.369-13.089-0.552-14.701c-0.185-1.612-0.828-3.114-1.932-4.511c-2.576-3.396-7.819-5.097-15.729-5.097
		c-8.095,0-13.155,1.96-15.177,5.881c-1.29,2.354-1.932,8.494-1.932,18.428v38.163l16.833,0.523L278.286,380.207z"/>
	<path fill="#FFFFFF" stroke="#FFFFFF" stroke-miterlimit="10" d="M468.74,389.79c21.726-36.135,34.845-59.572,39.357-70.31
		c2.287-5.083,4.004-8.325,5.148-9.727c1.143-1.401,2.584-2.104,4.324-2.104c1.83,0,3.477,0.503,4.943,1.506
		c1.465,1.005,2.197,2.118,2.197,3.34c0,1.397-1.012,3.712-3.033,6.941l-80.376,137.124l-4.273,7.466l-36.725-54.876l-12.151-18.205
		l-12.703-18.467l-10.906-16.371l-31.066-42.957h85.793l33.441,52.534L468.74,389.79z"/>
	<path fill="#FFFFFF" stroke="#FFFFFF" stroke-miterlimit="10" d="M604.185,309.615c14.809,0,28.836,3.886,42.082,11.656
		c12.232,7.16,21.57,16.939,28.01,29.337c5.701,10.915,8.555,22.483,8.555,34.706c0,8.383-1.68,16.81-5.037,25.277
		c-3.359,8.47-7.934,15.979-13.729,22.526c-8.096,8.994-17.984,15.762-29.664,20.301c-9.568,3.753-19.549,5.631-29.941,5.631
		c-17.385,0-33.023-4.889-46.912-14.668c-10.855-7.508-19.088-17.157-24.697-28.944c-4.691-9.953-7.037-20.474-7.037-31.563
		c0-21.652,8.279-39.639,24.836-53.959C566.193,316.644,584.041,309.876,604.185,309.615z M600.183,317.997l-0.414,132.147
		c2.85,0.176,4.83,0.262,5.934,0.262c12.783,0,25.018-3.407,36.701-10.226c11.221-6.643,19.639-15.469,25.25-26.482
		c4.414-8.738,6.623-18.352,6.623-28.842c0-21.062-8.189-38.148-24.561-51.258c-13.246-10.576-27.643-15.863-43.186-15.863
		C605.242,317.735,603.126,317.823,600.183,317.997z"/>
	<path fill="#FFFFFF" stroke="#FFFFFF" stroke-miterlimit="10" d="M809.419,378.41c18.057-26.085,31.201-45.908,39.434-59.472
		c2.938-4.64,4.771-7.353,5.504-8.141c0.734-0.788,1.791-1.183,3.168-1.183c1.834,0,3.486,0.654,4.953,1.964
		c1.469,1.31,2.205,2.796,2.205,4.453c0,1.31-0.783,2.882-2.344,4.715c-13.24,17.12-30.018,40.351-50.334,69.694l-24.268,35.24
		c-8.367,12.054-15.266,20.738-20.697,26.055c-4.053,3.749-8.863,6.798-14.434,9.153c-5.57,2.352-10.932,3.53-16.09,3.53
		c-5.063,0-9.229-0.939-12.496-2.815c-3.27-1.879-4.902-4.257-4.902-7.138c0-1.834,0.734-3.405,2.207-4.715
		c1.471-1.311,3.264-1.965,5.381-1.965c1.563,0,4.598,1.005,9.105,3.012c2.943,1.311,5.473,1.965,7.59,1.965
		c4.139,0,8.072-1.199,11.797-3.602c3.725-2.4,7.795-6.352,12.211-11.853l-16.281-24.229c-35.047-51.688-58.457-84.999-70.23-99.929
		h87.678c5.52,11.445,11.865,22.891,19.041,34.334C794.791,358.928,802.058,369.238,809.419,378.41z"/>
</g>
<line fill="none" stroke="#000000" stroke-width="10" stroke-miterlimit="10" x1="70.301" y1="236.106" x2="884.859" y2="238.638"/>
<line fill="none" stroke="#000000" stroke-width="10" stroke-miterlimit="10" x1="70.301" y1="259.106" x2="884.859" y2="261.638"/>
</svg>
